<svg width="38" height="38" viewBox="0 0 38 38" fill="none" xmlns="http://www.w3.org/2000/svg">
<path d="M7.88325 15.3347C4.73875 14.0776 3.1665 13.449 3.1665 12.6668C3.1665 11.8847 4.73875 11.2577 7.88325 9.99891L12.3293 8.22083C15.4738 6.96208 17.0476 6.3335 18.9998 6.3335C20.9521 6.3335 22.5259 6.96208 25.6704 8.22083L30.1164 9.99891C33.2609 11.2561 34.8332 11.8847 34.8332 12.6668C34.8332 13.449 33.2609 14.076 30.1164 15.3347L25.6704 17.1144C22.5259 18.3716 20.9521 19.0002 18.9998 19.0002C17.0476 19.0002 15.4738 18.3716 12.3293 17.1144L7.88325 15.3347Z" fill="#0196D6"/>
<path fill-rule="evenodd" clip-rule="evenodd" d="M3.1665 12.6668C3.1665 13.449 4.73875 14.076 7.88325 15.3347L12.3293 17.1144C15.4738 18.3716 17.0476 19.0002 18.9998 19.0002C20.9521 19.0002 22.5259 18.3716 25.6704 17.1144L30.1164 15.3347C33.2609 14.0776 34.8332 13.449 34.8332 12.6668C34.8332 11.8847 33.2609 11.2577 30.1164 9.99891L25.6704 8.22083C22.5259 6.96208 20.9521 6.3335 18.9998 6.3335C17.0476 6.3335 15.4738 6.96208 12.3293 8.22083L7.88484 9.99891C4.73875 11.2561 3.1665 11.8847 3.1665 12.6668Z" fill="#0196D6"/>
<path d="M30.1164 21.6677L25.6704 23.4474C22.5259 24.7045 20.9521 25.3331 18.9998 25.3331C17.0476 25.3331 15.4738 24.7045 12.3293 23.4474L7.88484 21.6677C4.73875 20.4105 3.1665 19.7804 3.1665 18.9998C3.1665 18.2952 4.44425 17.7141 6.99817 16.6865L11.9714 18.6752C14.9006 19.8469 16.7388 20.5831 18.9998 20.5831C21.2608 20.5831 23.1007 19.8469 26.0283 18.6752L30.9999 16.6865C33.557 17.7157 34.8332 18.2952 34.8332 18.9998C34.8332 19.7804 33.2609 20.4089 30.1164 21.6677Z" fill="#0196D6"/>
<path d="M30.1164 28.0012L25.6704 29.7793C22.5259 31.038 20.9521 31.6666 18.9998 31.6666C17.0476 31.6666 15.4738 31.038 12.3293 29.7793L7.88484 28.0012C4.73875 26.7424 3.1665 26.1139 3.1665 25.3333C3.1665 24.6287 4.44425 24.0476 6.99817 23.02L11.9714 25.0087C14.9006 26.1804 16.7388 26.9166 18.9998 26.9166C21.2608 26.9166 23.1007 26.1804 26.0283 25.0087L30.9999 23.02C33.5554 24.0492 34.8332 24.6287 34.8332 25.3317C34.8332 26.1139 33.2609 26.7424 30.1164 28.0012Z" fill="#0196D6"/>
</svg>
