<svg width="38" height="38" viewBox="0 0 38 38" fill="none" xmlns="http://www.w3.org/2000/svg">
<path d="M18.9998 3.1665C27.7446 3.1665 34.8332 10.2551 34.8332 18.9998C34.8332 27.7446 27.7446 34.8332 18.9998 34.8332C10.2551 34.8332 3.1665 27.7446 3.1665 18.9998C3.1665 10.2551 10.2551 3.1665 18.9998 3.1665ZM18.9998 9.49984C18.5799 9.49984 18.1772 9.66665 17.8803 9.96359C17.5833 10.2605 17.4165 10.6632 17.4165 11.0832V18.9998C17.4166 19.4197 17.5835 19.8224 17.8804 20.1193L22.6304 24.8693C22.929 25.1577 23.329 25.3173 23.7441 25.3137C24.1593 25.31 24.5564 25.1435 24.85 24.85C25.1435 24.5564 25.31 24.1593 25.3137 23.7441C25.3173 23.329 25.1577 22.929 24.8693 22.6304L20.5832 18.3443V11.0832C20.5832 10.6632 20.4164 10.2605 20.1194 9.96359C19.8225 9.66665 19.4198 9.49984 18.9998 9.49984Z" fill="#FF4400"/>
</svg>
